<svg width="108" height="108" viewBox="0 0 108 108" fill="none" xmlns="http://www.w3.org/2000/svg">
<path d="M15.2103 47.0033C14.0901 47.0033 13.5301 47.0033 13.1023 46.7853C12.7259 46.5935 12.42 46.2876 12.2282 45.9112C12.0103 45.4834 12.0103 44.9234 12.0103 43.8033V30.4593C12.0103 29.9448 12.0103 29.6876 12.0709 29.447C12.1246 29.2338 12.2132 29.0308 12.333 28.8464C12.4681 28.6383 12.6567 28.4633 13.0338 28.1134L21.1448 20.5883C21.4851 20.2726 21.6552 20.1147 21.8504 20.0021C22.0234 19.9022 22.2105 19.8288 22.4053 19.7843C22.625 19.7342 22.8571 19.7342 23.3212 19.7342H39.7748C39.8013 19.7342 39.8146 19.7342 39.8258 19.734C40.9128 19.7218 41.791 18.8436 41.8032 17.7566C41.8033 17.7454 41.8033 17.7321 41.8033 17.7056C41.8033 17.6504 41.8033 17.6228 41.8036 17.6062C41.8322 15.8847 43.8781 15.0014 45.1506 16.1613C45.1629 16.1725 45.183 16.1914 45.2231 16.2293L52.0872 22.6977C52.9471 23.508 53.3771 23.9132 53.5369 24.386C53.6774 24.8015 53.6774 25.2516 53.5369 25.6671C53.3771 26.1398 52.9471 26.545 52.0872 27.3554L45.2231 33.8238C45.183 33.8616 45.1629 33.8806 45.1506 33.8918C43.8781 35.0516 41.8322 34.1684 41.8036 32.4469C41.8033 32.4302 41.8033 32.4026 41.8033 32.3475C41.8033 32.3209 41.8033 32.3077 41.8032 32.2964C41.791 31.2094 40.9128 30.3312 39.8258 30.319C39.8146 30.3189 39.8013 30.3189 39.7748 30.3189H27.593C26.4729 30.3189 25.9129 30.3189 25.485 30.5369C25.1087 30.7286 24.8027 31.0346 24.611 31.4109C24.393 31.8387 24.393 32.3988 24.393 33.5189V43.8033C24.393 44.9234 24.393 45.4834 24.175 45.9112C23.9833 46.2876 23.6773 46.5935 23.301 46.7853C22.8732 47.0033 22.3131 47.0033 21.193 47.0033H15.2103Z" fill="#EC008C"/>
<path fill-rule="evenodd" clip-rule="evenodd" d="M59.6694 9.4814C60.0165 9.12728 60.1901 8.95022 60.3936 8.82353C60.574 8.71122 60.7712 8.62838 60.9778 8.57815C61.2107 8.52148 61.4587 8.52148 61.9545 8.52148H93.0899C93.576 8.52148 93.8191 8.52148 94.048 8.57611C94.251 8.62455 94.4451 8.70444 94.6233 8.8129C94.8244 8.93523 94.9971 9.10632 95.3424 9.44852L96.718 10.8117C97.0676 11.1582 97.2424 11.3314 97.3675 11.5341C97.4783 11.7137 97.5601 11.9097 97.6096 12.1149C97.6655 12.3464 97.6655 12.5925 97.6655 13.0847V65.852C97.6655 66.3442 97.6655 66.5903 97.6096 66.8217C97.5601 67.0269 97.4783 67.223 97.3675 67.4026C97.2424 67.6052 97.0676 67.7784 96.718 68.1249L95.3424 69.4881C94.9971 69.8303 94.8244 70.0014 94.6233 70.1238C94.4451 70.2322 94.251 70.3121 94.048 70.3605C93.8191 70.4152 93.576 70.4152 93.0899 70.4152H61.9281C61.4417 70.4152 61.1985 70.4152 60.9695 70.3605C60.7664 70.312 60.5722 70.232 60.3939 70.1235C60.1928 70.001 60.0201 69.8298 59.6747 69.4872L58.3914 68.2145C58.0421 67.868 57.8675 67.6948 57.7426 67.4923C57.6318 67.3127 57.5502 67.1168 57.5007 66.9117C57.4448 66.6803 57.4448 66.4344 57.4448 65.9424V13.0576C57.4448 12.5751 57.4448 12.3338 57.4987 12.1064C57.5465 11.9048 57.6253 11.7118 57.7323 11.5344C57.853 11.3343 58.0219 11.162 58.3596 10.8175L59.6694 9.4814ZM64.7414 16.5049C63.6213 16.5049 63.0612 16.5049 62.6334 16.7229C62.2571 16.9146 61.9511 17.2206 61.7594 17.5969C61.5414 18.0247 61.5414 18.5848 61.5414 19.7049V59.8597C61.5414 60.9798 61.5414 61.5398 61.7594 61.9677C61.9511 62.344 62.2571 62.65 62.6334 62.8417C63.0612 63.0597 63.6213 63.0597 64.7414 63.0597H90.1828C91.3029 63.0597 91.8629 63.0597 92.2907 62.8417C92.6671 62.65 92.973 62.344 93.1648 61.9677C93.3828 61.5398 93.3828 60.9798 93.3828 59.8597V19.7049C93.3828 18.5848 93.3828 18.0247 93.1648 17.5969C92.973 17.2206 92.6671 16.9146 92.2907 16.7229C91.8629 16.5049 91.3029 16.5049 90.1828 16.5049H64.7414Z" fill="black"/>
<path fill-rule="evenodd" clip-rule="evenodd" d="M14.0601 50.7693C14.4034 50.4386 14.575 50.2732 14.7736 50.155C14.9496 50.0503 15.1408 49.9732 15.3402 49.9265C15.5652 49.8738 15.8036 49.8738 16.2803 49.8738H37.5333C38.01 49.8738 38.2484 49.8738 38.4734 49.9265C38.6728 49.9732 38.864 50.0503 39.04 50.155C39.2386 50.2732 39.4102 50.4386 39.7536 50.7693L40.8236 51.8003C41.1849 52.1484 41.3656 52.3224 41.4949 52.5274C41.6095 52.7091 41.6941 52.9081 41.7455 53.1168C41.8034 53.3521 41.8034 53.603 41.8034 54.1047V92.7648C41.8034 93.2562 41.8034 93.5018 41.7476 93.7329C41.6982 93.9378 41.6168 94.1336 41.5063 94.313C41.3816 94.5154 41.2073 94.6885 40.8588 95.0349L39.76 96.1265C39.4145 96.4698 39.2418 96.6414 39.0405 96.7641C38.8621 96.8729 38.6677 96.9531 38.4644 97.0017C38.2351 97.0565 37.9916 97.0565 37.5046 97.0565H16.309C15.822 97.0565 15.5785 97.0565 15.3492 97.0017C15.1459 96.9531 14.9515 96.8729 14.7731 96.7641C14.5718 96.6414 14.3991 96.4698 14.0536 96.1265L12.9548 95.0349C12.6063 94.6885 12.432 94.5154 12.3073 94.313C12.1968 94.1336 12.1154 93.9378 12.066 93.7329C12.0103 93.5018 12.0103 93.2562 12.0103 92.7648V54.1047C12.0103 53.603 12.0103 53.3521 12.0682 53.1168C12.1195 52.9081 12.2041 52.7091 12.3187 52.5274C12.4481 52.3224 12.6287 52.1484 12.99 51.8003L14.0601 50.7693ZM18.9344 58.3057C17.8143 58.3057 17.2542 58.3057 16.8264 58.5237C16.4501 58.7154 16.1441 59.0214 15.9524 59.3977C15.7344 59.8255 15.7344 60.3856 15.7344 61.5057V84.707C15.7344 85.8271 15.7344 86.3871 15.9524 86.815C16.1441 87.1913 16.4501 87.4973 16.8264 87.689C17.2542 87.907 17.8143 87.907 18.9344 87.907H34.8792C35.9993 87.907 36.5594 87.907 36.9872 87.689C37.3635 87.4973 37.6695 87.1913 37.8612 86.815C38.0792 86.3871 38.0792 85.8271 38.0792 84.707V61.5057C38.0792 60.3856 38.0792 59.8255 37.8612 59.3977C37.6695 59.0214 37.3635 58.7154 36.9872 58.5237C36.5594 58.3057 35.9993 58.3057 34.8792 58.3057H18.9344ZM24.8904 90.598C23.9987 90.598 23.2758 91.3209 23.2758 92.2126C23.2758 93.1044 23.9987 93.8273 24.8904 93.8273H28.8301C29.7218 93.8273 30.4447 93.1044 30.4447 92.2126C30.4447 91.3209 29.7218 90.598 28.8301 90.598H24.8904Z" fill="black"/>
<path d="M47.2825 87.7146C46.413 86.9079 45.9783 86.5045 45.8149 86.0316C45.6714 85.616 45.6688 85.1646 45.8076 84.7473C45.9656 84.2726 46.3957 83.8643 47.256 83.0478L53.9384 76.7049C53.9687 76.6761 53.9839 76.6617 53.9931 76.6532C55.2648 75.4761 57.3298 76.3631 57.3515 78.0958C57.3517 78.1084 57.3517 78.1293 57.3517 78.1711C57.3517 78.1911 57.3517 78.2011 57.3518 78.2096C57.361 79.3009 58.2434 80.1834 59.3348 80.1926C59.3432 80.1927 59.3532 80.1927 59.3732 80.1927H76.3103C77.4304 80.1927 77.9905 80.1927 78.4183 79.9747C78.7946 79.7829 79.1006 79.477 79.2923 79.1006C79.5103 78.6728 79.5103 78.1128 79.5103 76.9927V76.6651C79.5103 75.545 79.5103 74.9849 79.7283 74.5571C79.92 74.1808 80.226 73.8748 80.6023 73.6831C81.0301 73.4651 81.5902 73.4651 82.7103 73.4651H88.5069C89.627 73.4651 90.187 73.4651 90.6148 73.6831C90.9912 73.8748 91.2971 74.1808 91.4889 74.5571C91.7069 74.9849 91.7069 75.545 91.7069 76.6651V80.7657C91.7069 81.2816 91.7069 81.5396 91.6459 81.7808C91.5919 81.9946 91.5029 82.198 91.3825 82.3827C91.2467 82.5912 91.0572 82.7662 90.6782 83.1163L83.5953 89.6589C83.2554 89.9729 83.0855 90.1299 82.8907 90.2419C82.718 90.3412 82.5315 90.4142 82.3372 90.4584C82.1181 90.5083 81.8868 90.5083 81.424 90.5083H59.3409C58.2423 90.5083 57.3517 91.3989 57.3517 92.4975C57.3517 94.234 55.2826 95.1368 54.0096 93.9557L47.2825 87.7146Z" fill="#EC008C"/>
</svg>
