<svg width="112" height="123" viewBox="0 0 112 123" fill="none" xmlns="http://www.w3.org/2000/svg">
<path d="M40.1985 2.80963L47.753 35.4497L17.825 26.5384L30.7283 53.5009L5.00879 55.3298L28.054 74.9313L10.3036 106.3L45.3689 94.1172L60.1132 121.358L65.5075 89.1669L89.8754 102.039L81.7445 66.7765L110.122 64.9352L85.8576 44.8473L93.6278 2.09473L69.1521 27.403L40.1985 2.80963Z" fill="#EC008C"/>
<path d="M42.2754 63.0775L45.6007 62.4374L47.2883 64.7276L48.9924 61.7848L53.1346 60.9868C53.1346 60.9868 52.2846 63.7841 50.7421 65.2471C49.3117 66.6021 47.0727 67.1092 45.3395 66.1449C43.1834 64.9479 42.2754 63.0733 42.2754 63.0733V63.0775Z" fill="white"/>
<path d="M51.3433 71.4067C48.7021 71.656 47.6572 68.9294 47.6572 68.9294L55.0459 69.3991C55.0459 69.3991 53.9845 71.1531 51.3433 71.4067Z" fill="white"/>
<path d="M61.1498 64.3409C57.3393 65.3509 54.5986 60.783 54.5986 60.783L58.4962 60.0349L60.7144 62.163L61.6971 59.4198L65.4868 58.6924C65.4868 58.6924 65.0183 63.3184 61.1498 64.3451V64.3409Z" fill="white"/>
<path d="M52.4753 58.5094C50.9951 57.0962 49.0919 56.4146 46.8073 56.4811L46.7451 54.4029C49.6019 54.3198 52.0068 55.1926 53.9016 57.0048L52.4712 58.5094H52.4753Z" fill="white"/>
<path d="M68.0079 56.3398C65.7938 55.1178 63.0863 54.9016 59.9641 55.6955L59.4541 53.6797C63.1029 52.7528 66.3162 53.0354 69.0072 54.5193L68.0079 56.3398Z" fill="white"/>
</svg>
