<svg width="120" height="120" viewBox="0 0 120 120" fill="none" xmlns="http://www.w3.org/2000/svg">
<path d="M16.5448 52.226C15.4247 52.226 14.8647 52.226 14.4368 52.008C14.0605 51.8163 13.7546 51.5103 13.5628 51.134C13.3448 50.7062 13.3448 50.1461 13.3448 49.026V33.6887C13.3448 33.1742 13.3448 32.917 13.4054 32.6764C13.4592 32.4631 13.5477 32.2602 13.6675 32.0758C13.8027 31.8677 13.9912 31.6927 14.3684 31.3428L23.5966 22.7811C23.9369 22.4654 24.107 22.3076 24.3022 22.1949C24.4752 22.095 24.6623 22.0216 24.8571 21.9771C25.0768 21.927 25.3089 21.927 25.773 21.927H44.1943C44.4302 21.927 44.5481 21.927 44.6474 21.9171C45.5945 21.8223 46.3436 21.0732 46.4383 20.1261C46.4483 20.0268 46.4483 19.9089 46.4483 19.673C46.4483 19.1822 46.4483 18.9368 46.47 18.7904C46.6884 17.3227 48.3728 16.5955 49.5907 17.4432C49.7122 17.5277 49.8908 17.696 50.248 18.0327L58.1494 25.4785C59.0093 26.2889 59.4393 26.6941 59.5991 27.1668C59.7396 27.5823 59.7396 28.0325 59.5991 28.448C59.4393 28.9207 59.0093 29.3259 58.1494 30.1363L50.248 37.5821C49.8908 37.9188 49.7122 38.0871 49.5907 38.1716C48.3728 39.0192 46.6884 38.2921 46.47 36.8244C46.4483 36.678 46.4483 36.4326 46.4483 35.9418C46.4483 35.7059 46.4483 35.588 46.4383 35.4887C46.3436 34.5416 45.5945 33.7925 44.6474 33.6977C44.5481 33.6878 44.4302 33.6878 44.1943 33.6878H30.3034C29.1833 33.6878 28.6233 33.6878 28.1955 33.9058C27.8191 34.0975 27.5132 34.4035 27.3214 34.7798C27.1034 35.2076 27.1034 35.7677 27.1034 36.8878V49.026C27.1034 50.1461 27.1034 50.7062 26.8855 51.134C26.6937 51.5103 26.3877 51.8163 26.0114 52.008C25.5836 52.226 25.0235 52.226 23.9034 52.226H16.5448Z" fill="#EC008C"/>
<path fill-rule="evenodd" clip-rule="evenodd" d="M66.4039 10.4284C66.751 10.0743 66.9246 9.89725 67.1281 9.77056C67.3086 9.65824 67.5058 9.57541 67.7123 9.52517C67.9453 9.46851 68.1932 9.46851 68.6891 9.46851H103.58C104.066 9.46851 104.309 9.46851 104.538 9.52313C104.741 9.57157 104.935 9.65146 105.113 9.75992C105.314 9.88225 105.487 10.0533 105.832 10.3955L107.57 12.1176C107.919 12.464 108.094 12.6373 108.219 12.8399C108.33 13.0195 108.412 13.2156 108.461 13.4208C108.517 13.6522 108.517 13.8983 108.517 14.3905V73.3172C108.517 73.8095 108.517 74.0556 108.461 74.287C108.412 74.4922 108.33 74.6883 108.219 74.8679C108.094 75.0705 107.919 75.2437 107.57 75.5902L105.832 77.3122C105.487 77.6544 105.314 77.8255 105.113 77.9479C104.935 78.0563 104.741 78.1362 104.538 78.1846C104.309 78.2393 104.066 78.2393 103.58 78.2393H68.6626C68.1762 78.2393 67.933 78.2393 67.704 78.1846C67.5009 78.1361 67.3067 78.0561 67.1284 77.9476C66.9273 77.8251 66.7546 77.6538 66.4092 77.3113L64.7742 75.6897C64.4249 75.3433 64.2503 75.1701 64.1254 74.9676C64.0146 74.788 63.933 74.592 63.8835 74.3869C63.8276 74.1556 63.8276 73.9096 63.8276 73.4177V14.3634C63.8276 13.8809 63.8276 13.6396 63.8815 13.4122C63.9293 13.2106 64.0081 13.0177 64.1151 12.8402C64.2358 12.6401 64.4047 12.4679 64.7425 12.1233L66.4039 10.4284ZM71.5794 18.3389C70.4593 18.3389 69.8992 18.3389 69.4714 18.5569C69.0951 18.7487 68.7891 19.0546 68.5973 19.431C68.3794 19.8588 68.3794 20.4188 68.3794 21.5389V66.8665C68.3794 67.9866 68.3794 68.5467 68.5973 68.9745C68.7891 69.3508 69.0951 69.6568 69.4714 69.8485C69.8992 70.0665 70.4593 70.0665 71.5794 70.0665H100.559C101.679 70.0665 102.239 70.0665 102.667 69.8485C103.043 69.6568 103.349 69.3508 103.541 68.9745C103.759 68.5467 103.759 67.9866 103.759 66.8665V21.5389C103.759 20.4188 103.759 19.8588 103.541 19.431C103.349 19.0546 103.043 18.7487 102.667 18.5569C102.239 18.3389 101.679 18.3389 100.559 18.3389H71.5794Z" fill="black"/>
<path fill-rule="evenodd" clip-rule="evenodd" d="M15.7257 56.3108C16.069 55.9801 16.2406 55.8147 16.4392 55.6965C16.6152 55.5918 16.8064 55.5147 17.0058 55.468C17.2308 55.4153 17.4692 55.4153 17.9459 55.4153H41.8472C42.3239 55.4153 42.5623 55.4153 42.7872 55.468C42.9867 55.5147 43.1778 55.5918 43.3539 55.6965C43.5525 55.8147 43.7241 55.9801 44.0674 56.3108L45.4685 57.6607C45.8298 58.0088 46.0105 58.1828 46.1398 58.3878C46.2544 58.5696 46.339 58.7686 46.3904 58.9772C46.4483 59.2126 46.4483 59.4634 46.4483 59.9652V103.22C46.4483 103.711 46.4483 103.957 46.3926 104.188C46.3432 104.393 46.2617 104.589 46.1512 104.768C46.0265 104.971 45.8522 105.144 45.5037 105.49L44.0739 106.911C43.7284 107.254 43.5557 107.425 43.3544 107.548C43.176 107.657 42.9816 107.737 42.7783 107.786C42.549 107.841 42.3055 107.841 41.8185 107.841H17.9746C17.4876 107.841 17.2441 107.841 17.0148 107.786C16.8115 107.737 16.6171 107.657 16.4387 107.548C16.2374 107.425 16.0647 107.254 15.7192 106.911L14.2894 105.49C13.9408 105.144 13.7666 104.971 13.6419 104.768C13.5314 104.589 13.4499 104.393 13.4005 104.188C13.3448 103.957 13.3448 103.711 13.3448 103.22V59.9652C13.3448 59.4634 13.3448 59.2126 13.4027 58.9772C13.454 58.7686 13.5387 58.5696 13.6533 58.3878C13.7826 58.1828 13.9633 58.0088 14.3246 57.6607L15.7257 56.3108ZM20.6828 64.7841C19.5626 64.7841 19.0026 64.7841 18.5748 65.002C18.1984 65.1938 17.8925 65.4997 17.7007 65.8761C17.4827 66.3039 17.4827 66.8639 17.4827 67.9841V94.4744C17.4827 95.5945 17.4827 96.1546 17.7007 96.5824C17.8925 96.9587 18.1984 97.2647 18.5748 97.4564C19.0026 97.6744 19.5626 97.6744 20.6827 97.6744H39.1103C40.2304 97.6744 40.7905 97.6744 41.2183 97.4564C41.5946 97.2647 41.9006 96.9587 42.0923 96.5824C42.3103 96.1546 42.3103 95.5945 42.3103 94.4744V67.9841C42.3103 66.8639 42.3103 66.3039 42.0923 65.8761C41.9006 65.4997 41.5946 65.1938 41.2183 65.002C40.7905 64.7841 40.2304 64.7841 39.1103 64.7841H20.6828ZM27.6561 100.664C26.6653 100.664 25.8621 101.468 25.8621 102.458C25.8621 103.449 26.6653 104.252 27.6561 104.252H32.0336C33.0244 104.252 33.8276 103.449 33.8276 102.458C33.8276 101.468 33.0244 100.664 32.0336 100.664H27.6561Z" fill="black"/>
<path d="M52.2584 97.203C51.3889 96.3963 50.9542 95.993 50.7909 95.52C50.6473 95.1044 50.6447 94.653 50.7835 94.2358C50.9415 93.761 51.3716 93.3527 52.2319 92.5362L59.9316 85.2277C60.2782 84.8988 60.4514 84.7343 60.5687 84.6513C61.7886 83.7879 63.49 84.5188 63.7036 85.998C63.7241 86.1401 63.7241 86.379 63.7241 86.8568C63.7241 87.0855 63.7241 87.1998 63.7335 87.2961C63.8258 88.248 64.5792 89.0014 65.5311 89.0937C65.6274 89.103 65.7417 89.103 65.9703 89.103H85.1448C86.2649 89.103 86.825 89.103 87.2528 88.885C87.6291 88.6933 87.9351 88.3873 88.1268 88.011C88.3448 87.5832 88.3448 87.0231 88.3448 85.903V84.8279C88.3448 83.7078 88.3448 83.1478 88.5628 82.7199C88.7546 82.3436 89.0605 82.0377 89.4368 81.8459C89.8647 81.6279 90.4247 81.6279 91.5448 81.6279H98.6966C99.8167 81.6279 100.377 81.6279 100.805 81.8459C101.181 82.0377 101.487 82.3436 101.679 82.7199C101.897 83.1478 101.897 83.7078 101.897 84.8279V89.8953C101.897 90.4113 101.897 90.6692 101.836 90.9104C101.782 91.1242 101.693 91.3276 101.572 91.5124C101.436 91.7208 101.247 91.8958 100.868 92.2459L92.7816 99.7154C92.4417 100.029 92.2717 100.186 92.077 100.298C91.9043 100.398 91.7177 100.471 91.5234 100.515C91.3044 100.565 91.073 100.565 90.6103 100.565H65.9344C65.7391 100.565 65.6415 100.565 65.5592 100.572C64.5848 100.652 63.8116 101.426 63.731 102.4C63.7241 102.482 63.7241 102.58 63.7241 102.775C63.7241 103.178 63.7241 103.379 63.7093 103.5C63.5242 105.011 61.7858 105.77 60.5522 104.877C60.4533 104.806 60.3058 104.669 60.0107 104.395L52.2584 97.203Z" fill="#EC008C"/>
</svg>
